<?xml version="1.0" standalone="no"?>
<!DOCTYPE svg PUBLIC "-//W3C//DTD SVG 20010904//EN"
 "http://www.w3.org/TR/2001/REC-SVG-20010904/DTD/svg10.dtd">
<svg version="1.0" xmlns="http://www.w3.org/2000/svg"
 width="983.000000pt" height="983.000000pt" viewBox="0 0 983.000000 983.000000"
 preserveAspectRatio="xMidYMid meet">
<metadata>
Created by potrace 1.11, written by Peter Selinger 2001-2013
</metadata>
<g transform="translate(0.000000,983.000000) scale(0.100000,-0.100000)"
fill="#000000" stroke="none">
<path d="M9786 7135 c-173 -160 -524 -371 -841 -505 -272 -116 -758 -269
-1026 -324 -13 -3 -35 -8 -49 -11 -14 -3 -36 -8 -50 -11 -14 -3 -45 -10 -70
-15 -25 -6 -56 -13 -70 -15 -14 -2 -36 -7 -50 -10 -14 -3 -36 -8 -50 -10 -14
-3 -47 -9 -75 -14 -65 -13 -81 -16 -135 -25 -25 -4 -54 -9 -65 -11 -34 -7
-198 -32 -245 -38 -25 -3 -54 -8 -65 -10 -11 -2 -42 -7 -70 -10 -46 -6 -89
-12 -155 -21 -14 -2 -53 -7 -88 -10 -35 -4 -71 -8 -81 -10 -9 -2 -50 -6 -90
-10 -40 -3 -80 -8 -89 -10 -9 -1 -55 -6 -102 -10 -47 -3 -101 -8 -120 -11 -19
-2 -69 -6 -110 -9 -42 -3 -93 -7 -115 -9 -22 -2 -85 -7 -140 -10 -55 -4 -120
-9 -145 -11 -25 -2 -106 -7 -180 -10 -74 -3 -169 -8 -210 -10 -545 -27 -1763
-27 -2395 0 -154 7 -326 15 -430 21 -221 11 -263 14 -335 19 -41 2 -120 7
-175 10 -55 3 -118 7 -140 10 -22 2 -80 7 -130 10 -49 3 -110 8 -135 10 -25 3
-79 7 -120 10 -41 3 -97 8 -125 11 -27 3 -72 7 -100 9 -55 5 -176 16 -215 21
-135 15 -193 19 -305 19 -119 0 -214 -7 -273 -20 -12 -3 -32 -7 -43 -10 -102
-22 -214 -79 -273 -139 -72 -73 -100 -140 -103 -251 -7 -267 158 -594 541
-1070 180 -224 361 -420 699 -760 272 -273 409 -403 586 -554 30 -25 71 -60
90 -77 47 -40 230 -185 258 -204 11 -8 56 -40 100 -71 248 -177 483 -293 623
-306 l55 -6 -37 30 c-117 95 -507 473 -673 653 -115 125 -313 353 -395 456 -8
11 -42 53 -76 94 -98 122 -260 342 -369 504 -174 257 -249 418 -262 562 -9
110 29 183 132 249 77 50 227 93 380 110 33 4 74 8 90 10 171 22 856 22 1415
0 99 -4 259 -9 640 -20 1103 -34 2016 -37 2390 -10 132 9 219 16 250 20 19 2
60 7 90 10 56 6 101 11 168 20 63 8 246 35 272 40 14 3 61 12 105 20 361 66
717 165 1025 286 142 56 121 47 300 132 449 214 855 519 1113 837 34 41 64 77
68 80 34 26 248 394 236 406 -2 2 -16 -7 -31 -21z"/>
</g>
</svg>
